<?xml version="1.0" encoding="UTF-8"?>
<svg width="512" height="512" viewBox="0 0 512 512" fill="none" xmlns="http://www.w3.org/2000/svg">
  <defs>
    <linearGradient id="ld_marineGradient" x1="0%" y1="0%" x2="100%" y2="100%">
      <stop offset="0%" style="stop-color:#0190e0"/>
      <stop offset="100%" style="stop-color:#016fb9"/>
    </linearGradient>
    <linearGradient id="ld_bgGradient" x1="0%" y1="0%" x2="100%" y2="100%">
      <stop offset="0%" style="stop-color:#3d3d38"/>
      <stop offset="100%" style="stop-color:#353531"/>
    </linearGradient>
  </defs>
  <rect width="512" height="512" rx="96" fill="url(#ld_bgGradient)"/>
  <g transform="translate(256.0, 256.0)">
    <circle cx="0" cy="0" r="165" fill="none" stroke="#016fb9" stroke-width="2" opacity="0.2"/>
    <circle cx="0" cy="0" r="130" fill="none" stroke="#016fb9" stroke-width="1.5" opacity="0.12"/>
    <circle cx="0" cy="0" r="65" fill="url(#ld_marineGradient)"/>
    <g>
      <path d="M-6 -42 C-22 -42 -36 -32 -40 -16 C-44 0 -40 16 -32 28 C-26 36 -18 42 -8 44 C-4 44 -2 42 0 40" fill="none" stroke="#ffffff" stroke-width="4.5" stroke-linecap="round" stroke-linejoin="round"/>
      <path d="M6 -42 C22 -42 36 -32 40 -16 C44 0 40 16 32 28 C26 36 18 42 8 44 C4 44 2 42 0 40" fill="none" stroke="#ffffff" stroke-width="4.5" stroke-linecap="round" stroke-linejoin="round"/>
      <path d="M0 40 L0 50" stroke="#ffffff" stroke-width="4" stroke-linecap="round"/>
      <line x1="0" y1="-38" x2="0" y2="36" stroke="#ffffff" stroke-width="2" opacity="0.35"/>
    </g>
    <line x1="0" y1="-65" x2="0" y2="-100" stroke="#016fb9" stroke-width="5" stroke-linecap="round"/>
    <circle cx="0" cy="-120" r="22" fill="#ff9505"/>
    <circle cx="0" cy="-120" r="8" fill="#ffffff" opacity="0.9"/>
    <line x1="46" y1="-46" x2="72" y2="-72" stroke="#016fb9" stroke-width="5" stroke-linecap="round"/>
    <circle cx="85" cy="-85" r="18" fill="#016fb9"/>
    <circle cx="85" cy="-85" r="6" fill="#ffffff" opacity="0.9"/>
    <line x1="65" y1="0" x2="100" y2="0" stroke="#016fb9" stroke-width="5" stroke-linecap="round"/>
    <circle cx="120" cy="0" r="22" fill="#ec4e20"/>
    <circle cx="120" cy="0" r="8" fill="#ffffff" opacity="0.9"/>
    <line x1="46" y1="46" x2="72" y2="72" stroke="#016fb9" stroke-width="5" stroke-linecap="round"/>
    <circle cx="85" cy="85" r="18" fill="#016fb9"/>
    <circle cx="85" cy="85" r="6" fill="#ffffff" opacity="0.9"/>
    <line x1="0" y1="65" x2="0" y2="100" stroke="#016fb9" stroke-width="5" stroke-linecap="round"/>
    <circle cx="0" cy="120" r="22" fill="#ff9505"/>
    <circle cx="0" cy="120" r="8" fill="#ffffff" opacity="0.9"/>
    <line x1="-46" y1="46" x2="-72" y2="72" stroke="#016fb9" stroke-width="5" stroke-linecap="round"/>
    <circle cx="-85" cy="85" r="18" fill="#016fb9"/>
    <circle cx="-85" cy="85" r="6" fill="#ffffff" opacity="0.9"/>
    <line x1="-65" y1="0" x2="-100" y2="0" stroke="#016fb9" stroke-width="5" stroke-linecap="round"/>
    <circle cx="-120" cy="0" r="22" fill="#ec4e20"/>
    <circle cx="-120" cy="0" r="8" fill="#ffffff" opacity="0.9"/>
    <line x1="-46" y1="-46" x2="-72" y2="-72" stroke="#016fb9" stroke-width="5" stroke-linecap="round"/>
    <circle cx="-85" cy="-85" r="18" fill="#016fb9"/>
    <circle cx="-85" cy="-85" r="6" fill="#ffffff" opacity="0.9"/>
  </g>
</svg>
